<svg width="18" height="18" viewBox="0 0 18 18" fill="none" xmlns="http://www.w3.org/2000/svg">
<path id="instagram - FontAwesome" fill-rule="evenodd" clip-rule="evenodd" d="M11.4286 8.85714C11.4286 7.28347 10.1451 5.99999 8.5714 5.99999C6.99774 5.99999 5.71426 7.28347 5.71426 8.85714C5.71426 10.4308 6.99774 11.7143 8.5714 11.7143C10.1451 11.7143 11.4286 10.4308 11.4286 8.85714ZM12.9687 8.85714C12.9687 11.2902 11.0044 13.2545 8.5714 13.2545C6.13836 13.2545 4.17408 11.2902 4.17408 8.85714C4.17408 6.4241 6.13836 4.45981 8.5714 4.45981C11.0044 4.45981 12.9687 6.4241 12.9687 8.85714ZM14.1741 4.28124C14.1741 4.85044 13.7165 5.30802 13.1473 5.30802C12.5781 5.30802 12.1205 4.85044 12.1205 4.28124C12.1205 3.71204 12.5781 3.25445 13.1473 3.25445C13.7165 3.25445 14.1741 3.71204 14.1741 4.28124ZM8.5714 1.82588C7.3214 1.82588 4.64283 1.72543 3.51559 2.17186C3.12497 2.32811 2.83479 2.51784 2.53345 2.81918C2.23211 3.12052 2.04238 3.4107 1.88613 3.80133C1.4397 4.92856 1.54015 7.60713 1.54015 8.85714C1.54015 10.1071 1.4397 12.7857 1.88613 13.9129C2.04238 14.3036 2.23211 14.5938 2.53345 14.8951C2.83479 15.1964 3.12497 15.3862 3.51559 15.5424C4.64283 15.9888 7.3214 15.8884 8.5714 15.8884C9.82141 15.8884 12.5 15.9888 13.6272 15.5424C14.0178 15.3862 14.308 15.1964 14.6094 14.8951C14.9107 14.5938 15.1004 14.3036 15.2567 13.9129C15.7031 12.7857 15.6027 10.1071 15.6027 8.85714C15.6027 7.60713 15.7031 4.92856 15.2567 3.80133C15.1004 3.4107 14.9107 3.12052 14.6094 2.81918C14.308 2.51784 14.0178 2.32811 13.6272 2.17186C12.5 1.72543 9.82141 1.82588 8.5714 1.82588ZM17.1428 8.85714C17.1428 10.0402 17.154 11.2121 17.087 12.3951C17.0201 13.7679 16.7076 14.9844 15.7031 15.9888C14.6986 16.9933 13.4821 17.3058 12.1094 17.3728C10.9263 17.4397 9.75444 17.4286 8.5714 17.4286C7.38837 17.4286 6.21649 17.4397 5.03345 17.3728C3.66068 17.3058 2.44416 16.9933 1.4397 15.9888C0.435233 14.9844 0.122733 13.7679 0.0557688 12.3951C-0.0111956 11.2121 -3.48764e-05 10.0402 -3.48764e-05 8.85714C-3.48764e-05 7.6741 -0.0111956 6.50222 0.0557688 5.31919C0.122733 3.94642 0.435233 2.7299 1.4397 1.72543C2.44416 0.720966 3.66068 0.408465 5.03345 0.341501C6.21649 0.274537 7.38837 0.285697 8.5714 0.285697C9.75444 0.285697 10.9263 0.274537 12.1094 0.341501C13.4821 0.408465 14.6986 0.720966 15.7031 1.72543C16.7076 2.7299 17.0201 3.94642 17.087 5.31919C17.154 6.50222 17.1428 7.6741 17.1428 8.85714Z" fill="white"/>
</svg>
