<svg width="19" height="15" viewBox="0 0 19 15" fill="none" xmlns="http://www.w3.org/2000/svg">
<path id="twitter - FontAwesome" fill-rule="evenodd" clip-rule="evenodd" d="M18.0804 2.4107C17.5893 3.12498 16.9755 3.76115 16.2724 4.27454C16.2835 4.43079 16.2835 4.58704 16.2835 4.74329C16.2835 9.50892 12.6563 15 6.02681 15C3.9844 15 2.08707 14.4085 0.491089 13.3817C0.781268 13.4152 1.06029 13.4263 1.36163 13.4263C3.0469 13.4263 4.59824 12.8571 5.83708 11.8862C4.25225 11.8527 2.92413 10.8147 2.46654 9.38615C2.68975 9.41964 2.91297 9.44196 3.14734 9.44196C3.471 9.44196 3.79466 9.39731 4.096 9.31919C2.44422 8.98437 1.20538 7.53347 1.20538 5.78124C1.20538 5.77008 1.20538 5.74776 1.20538 5.7366C1.68529 6.00445 2.24332 6.17186 2.83484 6.19418C1.86386 5.54686 1.2277 4.44195 1.2277 3.19195C1.2277 2.52231 1.40627 1.90847 1.71877 1.37275C3.49332 3.56025 6.16074 4.98883 9.15181 5.14508C9.09601 4.87722 9.06253 4.5982 9.06253 4.31918C9.06253 2.33257 10.6697 0.714268 12.6674 0.714268C13.7054 0.714268 14.6429 1.14954 15.3014 1.85266C16.1161 1.69641 16.8974 1.39507 17.5893 0.982125C17.3215 1.81918 16.7523 2.52231 16.0045 2.96873C16.7299 2.89061 17.4331 2.68972 18.0804 2.4107Z" fill="white"/>
</svg>
