<svg width="20" height="15" viewBox="0 0 20 15" fill="none" xmlns="http://www.w3.org/2000/svg">
<path id="youtube-play - FontAwesome" fill-rule="evenodd" clip-rule="evenodd" d="M14.2857 7.85713C14.2857 7.6116 14.163 7.37722 13.9509 7.25445L8.23662 3.68302C8.0134 3.53793 7.73438 3.53793 7.51117 3.6607C7.28796 3.78347 7.14287 4.029 7.14287 4.2857V11.4286C7.14287 11.6853 7.28796 11.9308 7.51117 12.0536C7.62278 12.1094 7.73438 12.1429 7.85715 12.1429C7.99108 12.1429 8.12501 12.1094 8.23662 12.0312L13.9509 8.45981C14.163 8.33704 14.2857 8.10267 14.2857 7.85713ZM20 7.85713C20 9.45312 20 11.1495 19.6429 12.7009C19.4085 13.7946 18.538 14.5982 17.4889 14.721C15.0112 15 12.5 15 10 15C7.50001 15 4.98885 15 2.51116 14.721C1.46206 14.5982 0.591519 13.7946 0.345983 12.7009C0 11.1495 0 9.45312 0 7.85713C0 6.26115 0 4.56472 0.357143 3.01338C0.602679 1.91963 1.46206 1.11605 2.51116 0.993286C4.98885 0.714268 7.50001 0.714268 10 0.714268C12.5 0.714268 15.0112 0.714268 17.4889 0.993286C18.538 1.11605 19.4085 1.91963 19.654 3.01338C20 4.56472 20 6.26115 20 7.85713Z" fill="white"/>
</svg>
