<svg width="353" height="203" viewBox="0 0 353 203" fill="none" xmlns="http://www.w3.org/2000/svg">
<g id="Group 25">
<g id="Group 4">
<path id="Combined Shape" fill-rule="evenodd" clip-rule="evenodd" d="M72.0183 49.4586C71.1498 43.2786 75.4556 37.5645 81.6357 36.696L325.638 2.4037C331.818 1.53515 337.532 5.841 338.4 12.0211C339.269 18.2012 334.963 23.9152 328.783 24.7838L276.842 32.0836L262.864 34.0481C256.684 34.9167 252.378 40.6307 253.246 46.8108C254.115 52.9909 259.829 57.2967 266.009 56.4282L279.988 54.4636L331.928 47.1638C338.108 46.2953 343.823 50.6011 344.691 56.7812C345.56 62.9613 341.254 68.6753 335.074 69.5439L283.133 76.8437L246.894 81.9367C240.714 82.8053 236.408 88.5193 237.277 94.6994C238.145 100.879 243.859 105.185 250.039 104.317L271.438 101.309C277.618 100.441 283.332 104.747 284.201 110.927C285.069 117.107 280.763 122.821 274.583 123.689L164.143 139.211C157.963 140.079 152.249 135.773 151.381 129.593C150.512 123.413 154.818 117.699 160.998 116.831L182.397 113.823C188.577 112.955 192.883 107.241 192.014 101.061C191.145 94.8806 185.431 90.5747 179.251 91.4433L143.012 96.5363L91.0716 103.836C84.8916 104.705 79.1775 100.399 78.309 94.2188C77.4404 88.0387 81.7462 82.3246 87.9263 81.4561L139.867 74.1563L153.846 72.1917C160.026 71.3232 164.332 65.6091 163.463 59.429C162.594 53.249 156.88 48.9431 150.7 49.8117L136.722 51.7762L84.781 59.076C78.6009 59.9446 72.8869 55.6387 72.0183 49.4586Z" fill="#7A62CB"/>
<path id="Combined Shape Copy" fill-rule="evenodd" clip-rule="evenodd" d="M280.982 153.541C281.85 159.721 277.544 165.435 271.364 166.304L27.3622 200.596C21.1822 201.465 15.4681 197.159 14.5996 190.979C13.731 184.799 18.0368 179.085 24.2169 178.216L76.1577 170.916L90.1362 168.952C96.3163 168.083 100.622 162.369 99.7536 156.189C98.8851 150.009 93.171 145.703 86.9909 146.572L73.0124 148.536L21.0716 155.836C14.8915 156.705 9.17749 152.399 8.30893 146.219C7.44038 140.039 11.7462 134.325 17.9263 133.456L69.8671 126.156L106.106 121.063C112.286 120.195 116.592 114.481 115.723 108.301C114.855 102.121 109.141 97.8147 102.961 98.6832L81.562 101.691C75.3819 102.559 69.6679 98.2533 68.7993 92.0732C67.9308 85.8931 72.2366 80.1791 78.4167 79.3105L188.857 63.7892C195.037 62.9207 200.751 67.2265 201.619 73.4066C202.488 79.5867 198.182 85.3007 192.002 86.1693L170.603 89.1766C164.423 90.0452 160.117 95.7593 160.986 101.939C161.855 108.119 167.569 112.425 173.749 111.557L209.988 106.464L261.928 99.1639C268.108 98.2953 273.822 102.601 274.691 108.781C275.56 114.961 271.254 120.675 265.074 121.544L213.133 128.844L199.154 130.808C192.974 131.677 188.668 137.391 189.537 143.571C190.406 149.751 196.12 154.057 202.3 153.188L216.278 151.224L268.219 143.924C274.399 143.055 280.113 147.361 280.982 153.541Z" fill="#7A62CB"/>
</g>
<g id="Group 3">
<g id="Group 3 Copy">
<g id="Group">
<path id="Combined Shape_2" fill-rule="evenodd" clip-rule="evenodd" d="M250.548 18.1628H222.385L215.185 79.0793H225.152C242.057 79.0793 255.761 65.4426 255.761 48.621V23.3503C255.761 20.4853 253.427 18.1628 250.548 18.1628ZM243.69 27.6538H222.478L219.883 69.565L227.249 67.5112C237.441 64.6696 244.71 55.7219 245.367 45.2097L246.291 30.4085C246.295 30.3549 246.297 30.3013 246.297 30.2476C246.297 28.8151 245.13 27.6538 243.69 27.6538Z" fill="#FFC300"/>
</g>
<g id="Group Copy">
<g id="Combined Shape_3" filter="url(#filter0_i_0_215)">
<path fill-rule="evenodd" clip-rule="evenodd" d="M102.452 18.1628H130.615L137.815 79.0793H127.848C110.943 79.0793 97.2391 65.4426 97.2391 48.621V23.3503C97.2391 20.4853 99.5731 18.1628 102.452 18.1628ZM109.31 27.6538H130.522L133.117 69.565L125.751 67.5112C115.559 64.6696 108.29 55.7219 107.633 45.2097L106.709 30.4085C106.705 30.3549 106.703 30.3013 106.703 30.2476C106.703 28.8151 107.87 27.6538 109.31 27.6538Z" fill="#FFC300"/>
</g>
</g>
<rect id="Rectangle 2" x="125.672" y="158.438" width="101.656" height="3.89062" rx="1.94531" fill="#FFC300"/>
<g id="Combined Shape_4" filter="url(#filter1_i_0_215)">
<path fill-rule="evenodd" clip-rule="evenodd" d="M133.467 7.65308H176.481H176.775H219.789C221.225 7.65308 222.389 8.81714 222.389 10.2531V53.1463C222.389 53.1463 222.389 72.0088 208.162 88.5253C204.031 93.3211 199.878 96.8392 196.182 99.9705C188.102 106.816 182.204 111.812 183.486 124.266L176.775 124.32V124.322L176.628 124.321L176.481 124.322V124.32L169.77 124.266C171.053 111.812 165.154 106.816 157.074 99.9705C153.378 96.8392 149.225 93.3211 145.094 88.5253C130.867 72.0088 130.867 53.1463 130.867 53.1463V10.2531C130.867 8.81714 132.031 7.65308 133.467 7.65308Z" fill="#FFC300"/>
</g>
<rect id="Rectangle 2 Copy" x="108.729" y="170.109" width="24.7623" height="3.89062" rx="1.94531" fill="#FFC300"/>
<rect id="Rectangle" x="143.918" y="123.719" width="65.1639" height="35.0156" fill="#EC610A"/>
<rect id="Rectangle Copy" x="154.344" y="131.5" width="44.3115" height="19.4531" fill="#FFC300"/>
<rect id="Rectangle 2 Copy 2" x="147.828" y="170.109" width="19.5492" height="3.89062" rx="1.94531" fill="#FFC300"/>
<path id="Star" fill-rule="evenodd" clip-rule="evenodd" d="M176.5 62.1172L161.945 69.7316L164.725 53.6041L152.95 42.1825L169.223 39.8295L176.5 25.1562L183.777 39.8295L200.05 42.1825L188.275 53.6041L191.055 69.7316L176.5 62.1172Z" fill="#EC610A"/>
<path id="Path 2" d="M140.729 43.5996C140.729 43.5996 141.778 61.8275 146.602 71.5243" stroke="#EC610A" stroke-width="2.6" stroke-linecap="round" stroke-linejoin="round"/>
<path id="Path 3" d="M150.698 79.7344C150.698 79.7344 154.268 85.0203 156.587 87.284" stroke="#EC610A" stroke-width="2.6" stroke-linecap="round" stroke-linejoin="round"/>
<rect id="Rectangle 2 Copy 3" x="175.197" y="170.109" width="13.0328" height="3.89062" rx="1.94531" fill="#FFC300"/>
<rect id="Rectangle 2 Copy 4" x="201.262" y="170.109" width="53.4344" height="3.89062" rx="1.94531" fill="#FFC300"/>
</g>
</g>
</g>
<defs>
<filter id="filter0_i_0_215" x="97.2391" y="18.1628" width="40.5756" height="60.9165" filterUnits="userSpaceOnUse" color-interpolation-filters="sRGB">
<feFlood flood-opacity="0" result="BackgroundImageFix"/>
<feBlend mode="normal" in="SourceGraphic" in2="BackgroundImageFix" result="shape"/>
<feColorMatrix in="SourceAlpha" type="matrix" values="0 0 0 0 0 0 0 0 0 0 0 0 0 0 0 0 0 0 127 0" result="hardAlpha"/>
<feOffset dx="-6"/>
<feComposite in2="hardAlpha" operator="arithmetic" k2="-1" k3="1"/>
<feColorMatrix type="matrix" values="0 0 0 0 0 0 0 0 0 0 0 0 0 0 0 0 0 0 0.08 0"/>
<feBlend mode="normal" in2="shape" result="effect1_innerShadow_0_215"/>
</filter>
<filter id="filter1_i_0_215" x="130.867" y="7.65308" width="91.5227" height="116.669" filterUnits="userSpaceOnUse" color-interpolation-filters="sRGB">
<feFlood flood-opacity="0" result="BackgroundImageFix"/>
<feBlend mode="normal" in="SourceGraphic" in2="BackgroundImageFix" result="shape"/>
<feColorMatrix in="SourceAlpha" type="matrix" values="0 0 0 0 0 0 0 0 0 0 0 0 0 0 0 0 0 0 127 0" result="hardAlpha"/>
<feOffset dx="6"/>
<feComposite in2="hardAlpha" operator="arithmetic" k2="-1" k3="1"/>
<feColorMatrix type="matrix" values="0 0 0 0 0 0 0 0 0 0 0 0 0 0 0 0 0 0 0.08 0"/>
<feBlend mode="normal" in2="shape" result="effect1_innerShadow_0_215"/>
</filter>
</defs>
</svg>
