<svg width="353" height="233" viewBox="0 0 353 233" fill="none" xmlns="http://www.w3.org/2000/svg">
<g id="Group 29">
<g id="Group 44">
<g id="Group 43" opacity="0.05">
<path id="Combined Shape" fill-rule="evenodd" clip-rule="evenodd" d="M71.5727 61.6277C70.7041 55.4476 75.0099 49.7335 81.19 48.865L325.192 14.5727C331.372 13.7042 337.086 18.01 337.955 24.1901C338.823 30.3702 334.517 36.0842 328.337 36.9528L276.397 44.2526L262.418 46.2171C256.238 47.0857 251.932 52.7997 252.801 58.9798C253.669 65.1599 259.383 69.4657 265.563 68.5972L279.542 66.6326L331.483 59.3328C337.663 58.4643 343.377 62.7701 344.245 68.9502C345.114 75.1303 340.808 80.8443 334.628 81.7129L282.687 89.0127L246.448 94.1057C240.268 94.9743 235.962 100.688 236.831 106.868C237.7 113.048 243.414 117.354 249.594 116.486L270.992 113.478C277.172 112.61 282.886 116.916 283.755 123.096C284.624 129.276 280.318 134.99 274.138 135.858L163.698 151.38C157.518 152.248 151.803 147.943 150.935 141.762C150.066 135.582 154.372 129.868 160.552 129L181.951 125.992C188.131 125.124 192.437 119.41 191.568 113.23C190.7 107.05 184.986 102.744 178.806 103.612L142.567 108.705L90.626 116.005C84.4459 116.874 78.7318 112.568 77.8633 106.388C76.9947 100.208 81.3006 94.4936 87.4807 93.6251L139.421 86.3253L153.4 84.3607C159.58 83.4922 163.886 77.7781 163.017 71.598C162.149 65.418 156.435 61.1121 150.255 61.9807L136.276 63.9452L84.3353 71.245C78.1552 72.1136 72.4412 67.8077 71.5727 61.6277Z" fill="#7A62CB"/>
<path id="Combined Shape Copy" fill-rule="evenodd" clip-rule="evenodd" d="M280.536 165.71C281.405 171.89 277.099 177.604 270.919 178.473L26.9166 212.765C20.7365 213.634 15.0224 209.328 14.1539 203.148C13.2853 196.968 17.5912 191.254 23.7712 190.385L75.7121 183.085L89.6906 181.121C95.8706 180.252 100.176 174.538 99.3079 168.358C98.4394 162.178 92.7253 157.872 86.5453 158.741L72.5667 160.705L20.6259 168.005C14.4459 168.874 8.73181 164.568 7.86326 158.388C6.9947 152.208 11.3005 146.494 17.4806 145.625L69.4214 138.325L105.66 133.232C111.84 132.364 116.146 126.65 115.278 120.469C114.409 114.289 108.695 109.984 102.515 110.852L81.1163 113.859C74.9363 114.728 69.2222 110.422 68.3537 104.242C67.4851 98.062 71.7909 92.348 77.971 91.4794L188.411 75.9581C194.591 75.0895 200.305 79.3954 201.174 85.5755C202.042 91.7556 197.736 97.4696 191.556 98.3382L170.158 101.346C163.978 102.214 159.672 107.928 160.54 114.108C161.409 120.288 167.123 124.594 173.303 123.726L209.542 118.633L261.483 111.333C267.663 110.464 273.377 114.77 274.245 120.95C275.114 127.13 270.808 132.844 264.628 133.713L212.687 141.013L198.709 142.977C192.529 143.846 188.223 149.56 189.091 155.74C189.96 161.92 195.674 166.226 201.854 165.357L215.833 163.393L267.773 156.093C273.953 155.224 279.667 159.53 280.536 165.71Z" fill="#7A62CB"/>
</g>
<g id="Group 40">
<g id="Group 41">
<g id="chatting-communication-chat-bubble-3b6bea64cc673e7f">
<path id="Shape" opacity="0.5524" d="M249.29 0C229.14 0 213 3.32 213 27.75C213 43.23 219.72 50.23 229.72 53.28V64.28L238.72 55.05C242.26 55.3817 245.815 55.5352 249.37 55.51C269.53 55.51 285.81 52.19 285.81 27.76C285.81 3.33 269.45 0 249.29 0Z" fill="#7289DA"/>
<circle id="Oval" cx="235.3" cy="27.76" r="4.37" fill="white"/>
<circle id="Oval_2" cx="249.3" cy="27.76" r="4.37" fill="white"/>
<circle id="Oval_3" cx="263.3" cy="27.76" r="4.37" fill="white"/>
</g>
<g id="chatting-communication-chat-bubble-3b6bea64cc673e7f copy">
<path id="Shape_2" opacity="0.5524" d="M162.629 3C175.051 3 185 5.04308 185 20.0769C185 29.6031 180.858 33.9108 174.693 35.7877V42.5569L169.145 36.8769C166.963 37.081 164.772 37.1755 162.58 37.16C150.153 37.16 140.117 35.1169 140.117 20.0831C140.117 5.04923 150.202 3 162.629 3Z" fill="#7289DA"/>
<ellipse id="Oval_4" cx="2.69384" cy="2.68923" rx="2.69384" ry="2.68923" transform="matrix(-1 0 0 1 173.947 17.3938)" fill="white"/>
<ellipse id="Oval_5" cx="2.69384" cy="2.68923" rx="2.69384" ry="2.68923" transform="matrix(-1 0 0 1 165.317 17.3938)" fill="white"/>
<ellipse id="Oval_6" cx="2.69384" cy="2.68923" rx="2.69384" ry="2.68923" transform="matrix(-1 0 0 1 156.687 17.3938)" fill="white"/>
</g>
<g id="chatting-communication-chat-bubble-3b6bea64cc673e7f copy 2">
<path id="Shape_3" opacity="0.5524" d="M73.8504 22C59.497 22 48 24.3757 48 41.8569C48 52.9338 52.7868 57.9428 59.9101 60.1252L68.7233 71.5821L66.3211 61.3918C68.8428 61.6291 71.3747 61.739 73.9074 61.7209C88.2679 61.7209 99.8647 59.3453 99.8647 41.864C99.8647 24.3828 88.211 22 73.8504 22Z" fill="#7289DA"/>
<ellipse id="Oval_7" cx="63.885" cy="41.8641" rx="3.11288" ry="3.12701" fill="white"/>
<ellipse id="Oval_8" cx="73.8575" cy="41.8641" rx="3.11288" ry="3.12701" fill="white"/>
<ellipse id="Oval_9" cx="83.8302" cy="41.8641" rx="3.11288" ry="3.12701" fill="white"/>
</g>
</g>
<g id="Group 41 Copy">
<g id="chatting-communication-chat-bubble-3b6bea64cc673e7f_2">
<path id="Shape_4" opacity="0.5524" d="M84.71 233C104.86 233 121 229.68 121 205.25C121 189.77 114.28 182.77 104.28 179.72V168.72L95.28 177.95C91.74 177.618 88.1855 177.465 84.63 177.49C64.47 177.49 48.19 180.81 48.19 205.24C48.19 229.67 64.55 233 84.71 233Z" fill="#7289DA"/>
<circle id="Oval_10" cx="98.6999" cy="205.24" r="4.37" transform="rotate(180 98.6999 205.24)" fill="white"/>
<circle id="Oval_11" cx="84.6999" cy="205.24" r="4.37" transform="rotate(180 84.6999 205.24)" fill="white"/>
<circle id="Oval_12" cx="70.6999" cy="205.24" r="4.37" transform="rotate(180 70.6999 205.24)" fill="white"/>
</g>
<g id="chatting-communication-chat-bubble-3b6bea64cc673e7f copy_2">
<path id="Shape_5" opacity="0.5524" d="M181.371 220C168.949 220 159 217.957 159 202.923C159 193.397 163.142 189.089 169.307 187.212V180.443L174.855 186.123C177.037 185.919 179.228 185.824 181.42 185.84C193.847 185.84 203.883 187.883 203.883 202.917C203.883 217.951 193.798 220 181.371 220Z" fill="#7289DA"/>
<ellipse id="Oval_13" cx="2.69384" cy="2.68923" rx="2.69384" ry="2.68923" transform="matrix(1 0 0 -1 170.053 205.606)" fill="white"/>
<ellipse id="Oval_14" cx="2.69384" cy="2.68923" rx="2.69384" ry="2.68923" transform="matrix(1 0 0 -1 178.683 205.606)" fill="white"/>
<ellipse id="Oval_15" cx="2.69384" cy="2.68923" rx="2.69384" ry="2.68923" transform="matrix(1 0 0 -1 187.313 205.606)" fill="white"/>
</g>
</g>
</g>
</g>
<path id="surface1" fill-rule="evenodd" clip-rule="evenodd" d="M216.182 74.5C216.182 74.5 201.798 63.2812 184.818 62L183.288 65.0531C198.637 68.8 205.681 74.1562 213.045 80.75C200.353 74.2937 187.829 68.25 166 68.25C144.171 68.25 131.647 74.2937 118.955 80.75C126.319 74.1562 134.699 68.2 148.712 65.0531L147.182 62C129.367 63.6719 115.818 74.5 115.818 74.5C115.818 74.5 99.7569 97.7062 97 143.25C113.184 161.853 137.773 162 137.773 162L142.916 155.175C134.185 152.15 124.337 146.753 115.818 137C125.974 144.656 141.301 152.625 166 152.625C190.699 152.625 206.026 144.656 216.182 137C207.667 146.753 197.818 152.15 189.084 155.175L194.227 162C194.227 162 218.816 161.853 235 143.25C232.243 97.7062 216.182 74.5 216.182 74.5ZM145.614 130.75C139.548 130.75 134.636 125.156 134.636 118.25C134.636 111.344 139.548 105.75 145.614 105.75C151.679 105.75 156.591 111.344 156.591 118.25C156.591 125.156 151.679 130.75 145.614 130.75ZM175.409 118.25C175.409 125.156 180.321 130.75 186.386 130.75C192.452 130.75 197.364 125.156 197.364 118.25C197.364 111.344 192.452 105.75 186.386 105.75C180.321 105.75 175.409 111.344 175.409 118.25Z" fill="#9479EE"/>
</g>
</svg>
