<svg width="360" height="248" viewBox="0 0 360 248" fill="none" xmlns="http://www.w3.org/2000/svg">
<g id="Group 22">
<g id="Group 11">
<g id="Group 20">
<g id="react-1">
<ellipse id="Oval" cx="54.3699" cy="77.9145" rx="4.30227" ry="4.26562" fill="#EEEEEE"/>
<path id="Shape" fill-rule="evenodd" clip-rule="evenodd" d="M54.3699 69.2423C60.1451 69.2423 65.5108 70.0641 69.5558 71.4442C74.4296 73.1076 77.4267 75.6295 77.4267 77.9131C77.4267 80.2926 74.2504 82.9724 69.0169 84.6907C65.0601 85.9904 59.8522 86.6699 54.3699 86.6699C48.7482 86.6699 43.4265 86.0327 39.4243 84.6766C34.3613 82.9611 31.3116 80.2475 31.3116 77.9131C31.3116 75.6478 34.1737 73.1457 38.9792 71.4851C43.0398 70.0825 48.5378 69.2423 54.3699 69.2423V69.2423Z" stroke="#EEEEEE" stroke-width="2.03994"/>
<path id="Shape_2" fill-rule="evenodd" clip-rule="evenodd" d="M46.7563 73.6038C49.6411 68.6432 53.0405 64.4453 56.2679 61.6612C60.1565 58.3062 63.8573 56.9924 65.8521 58.1328C67.9307 59.3211 68.6856 63.388 67.5724 68.7433C66.7307 72.7918 64.7232 77.603 61.9834 82.3127C59.1754 87.1407 55.9594 91.3937 52.7761 94.1538C48.7482 97.6455 44.8525 98.9085 42.8137 97.7428C40.8346 96.6108 40.0783 92.9034 41.0266 87.9456C41.8284 83.7533 43.8417 78.6123 46.7563 73.6038Z" stroke="#EEEEEE" stroke-width="2.03994"/>
<path id="Shape_3" fill-rule="evenodd" clip-rule="evenodd" d="M46.7634 82.3225C43.8701 77.3662 41.8995 72.3506 41.0777 68.1879C40.0882 63.1723 40.7877 59.3367 42.781 58.1934C44.8582 57.0009 48.788 58.3837 52.9111 62.0136C56.029 64.7582 59.2294 68.8857 61.9763 73.5911C64.7928 78.415 66.9041 83.3008 67.7245 87.4128C68.7638 92.6172 67.9221 96.5939 65.8847 97.7625C63.9071 98.8973 60.2901 97.6962 56.4314 94.4047C53.1727 91.6234 49.6851 87.3268 46.7634 82.3225Z" stroke="#EEEEEE" stroke-width="2.03994"/>
</g>
<g id="graphql">
<path id="Shape_4" fill-rule="evenodd" clip-rule="evenodd" d="M309.411 59.024L319.018 64.67C319.295 64.3712 319.614 64.1149 319.963 63.9088C321.955 62.7429 324.497 63.4351 325.654 65.4632C326.8 67.4913 326.119 70.0778 324.127 71.2558C323.78 71.459 323.407 71.6105 323.017 71.7055V83.0015C323.402 83.0967 323.772 83.2471 324.115 83.4482C326.119 84.6262 326.8 87.2129 325.642 89.241C324.497 91.2689 321.944 91.9611 319.951 90.7954C319.565 90.57 319.217 90.2827 318.921 89.9445L309.373 95.5557C309.512 95.9867 309.583 96.4377 309.583 96.8915C309.583 99.2232 307.722 101.13 305.419 101.13C303.116 101.13 301.255 99.2352 301.255 96.8915C301.255 96.4749 301.314 96.0725 301.424 95.6924L291.819 90.0481C291.545 90.3409 291.231 90.5925 290.887 90.7954C288.883 91.9611 286.341 91.2689 285.196 89.241C284.051 87.2129 284.731 84.6262 286.723 83.4482C287.066 83.247 287.436 83.0966 287.821 83.0014V71.7055C287.432 71.6105 287.058 71.459 286.711 71.2558C284.719 70.0901 284.039 67.4913 285.184 65.4632C286.33 63.4351 288.883 62.7429 290.875 63.9088C291.223 64.1138 291.539 64.3685 291.816 64.6652L301.425 59.0177C301.312 58.6264 301.255 58.2205 301.255 57.8125C301.255 55.469 303.116 53.5743 305.419 53.5743C307.722 53.5743 309.583 55.4688 309.583 57.8125C309.583 58.2337 309.523 58.6403 309.411 59.024ZM308.41 60.7636L318.04 66.4228C317.73 67.5251 317.873 68.7082 318.436 69.7014C319.022 70.7393 319.977 71.4274 321.037 71.6956V83.0057C320.983 83.019 320.929 83.0338 320.876 83.0493L308.298 60.8768C308.336 60.8398 308.374 60.8021 308.41 60.7637V60.7636ZM302.543 60.8793L289.965 83.0514C289.911 83.0354 289.856 83.0206 289.801 83.0068V71.6956C290.861 71.4274 291.816 70.7393 292.402 69.7014C292.966 68.7062 293.109 67.5205 292.797 66.4165L302.424 60.759C302.463 60.7998 302.502 60.84 302.543 60.8791V60.8793ZM306.583 61.8837L319.157 84.0509C318.869 84.3306 318.622 84.6512 318.424 85.0026C318.226 85.352 318.078 85.7282 317.985 86.1199H292.854C292.76 85.7282 292.612 85.352 292.414 85.0026C292.216 84.6536 291.969 84.335 291.682 84.0563L304.259 61.8847C304.636 61.9952 305.027 62.0511 305.419 62.0507C305.823 62.0507 306.213 61.9925 306.583 61.8837ZM308.498 94.0363L318.066 88.4139C318.037 88.3221 318.012 88.2293 317.989 88.1358H292.848C292.835 88.1908 292.82 88.2454 292.805 88.2998L302.419 93.9499C303.204 93.1195 304.287 92.6512 305.419 92.6534C306.591 92.6513 307.71 93.1536 308.498 94.0363Z" fill="#EEEEEE"/>
</g>
</g>
</g>
<g id="Group 2">
<g id="Group 17">
<g id="nodejs-icon">
<path id="Shape_5" d="M242.134 0.637676C243.387 -0.0632088 245.02 -0.0663747 246.273 0.637676C252.573 4.11554 258.876 7.58796 265.176 11.0679C266.361 11.7199 267.154 13.0081 267.142 14.3418V35.266C267.15 36.6549 266.279 37.9738 265.029 38.611C258.749 42.0697 252.472 45.5327 246.193 48.9914C244.914 49.706 243.248 49.6509 242.009 48.8777C240.126 47.8116 238.24 46.7506 236.357 45.6855C235.972 45.4614 235.538 45.2831 235.267 44.9187C235.507 44.6024 235.936 44.563 236.285 44.425C237.071 44.1808 237.793 43.789 238.515 43.4087C238.698 43.2867 238.92 43.3335 239.095 43.4427C240.706 44.3444 242.301 45.2724 243.917 46.1655C244.261 46.3598 244.61 46.1018 244.905 45.9414C251.068 42.539 257.238 39.1494 263.4 35.746C263.628 35.6387 263.754 35.4019 263.736 35.1576C263.74 28.2552 263.737 21.3515 263.738 14.4491C263.764 14.1719 263.6 13.917 263.343 13.8036C257.085 10.3607 250.83 6.91258 244.572 3.46883C244.35 3.3198 244.058 3.31939 243.835 3.46777C237.578 6.91258 231.324 10.3639 225.066 13.8066C224.811 13.9202 224.639 14.1708 224.67 14.4491C224.671 21.3515 224.67 28.2552 224.67 35.1587C224.647 35.4028 224.783 35.6346 225.01 35.7396C226.68 36.6646 228.352 37.583 230.023 38.5048C230.964 38.9997 232.12 39.2938 233.157 38.9146C234.072 38.594 234.713 37.6817 234.696 36.7325C234.705 29.8703 234.692 23.0071 234.702 16.146C234.68 15.8413 234.975 15.5897 235.279 15.6183C236.081 15.613 236.884 15.6078 237.687 15.6204C238.021 15.613 238.252 15.9411 238.211 16.248C238.207 23.1536 238.219 30.0594 238.205 36.965C238.207 38.8054 237.433 40.808 235.691 41.7085C233.544 42.7949 230.89 42.5645 228.769 41.5228C226.933 40.6275 225.181 39.571 223.377 38.6119C222.124 37.9782 221.257 36.654 221.266 35.2661V14.3418C221.253 12.9805 222.077 11.6689 223.299 11.0264C229.578 7.56492 235.856 4.10077 242.134 0.637676Z" fill="#EEEEEE"/>
<path id="Shape_6" d="M247.612 15.132C250.35 14.9598 253.282 15.03 255.746 16.3479C257.654 17.3578 258.712 19.4773 258.746 21.548C258.693 21.8273 258.394 21.9813 258.121 21.9622C257.326 21.9611 256.531 21.9727 255.737 21.9569C255.4 21.9696 255.204 21.666 255.162 21.3749C254.933 20.3842 254.38 19.4029 253.426 18.9251C251.96 18.2083 250.261 18.2444 248.663 18.2594C247.496 18.3199 246.242 18.4185 245.254 19.0886C244.495 19.5962 244.265 20.6209 244.535 21.4461C244.791 22.0387 245.491 22.2299 246.064 22.4061C249.364 23.2493 252.861 23.1654 256.099 24.275C257.439 24.7274 258.75 25.6068 259.209 26.9776C259.809 28.8148 259.546 31.0109 258.208 32.4858C257.123 33.6996 255.542 34.3602 253.966 34.719C251.869 35.1757 249.693 35.1874 247.563 34.9846C245.56 34.7615 243.476 34.2476 241.931 32.9148C240.609 31.7936 239.963 30.0465 240.027 28.3604C240.042 28.0756 240.333 27.877 240.612 27.9004C241.412 27.8941 242.212 27.892 243.012 27.9015C243.332 27.8792 243.569 28.149 243.585 28.4432C243.733 29.3872 244.096 30.3779 244.939 30.9375C246.565 31.9624 248.605 31.8922 250.468 31.9209C252.01 31.8541 253.742 31.8338 255.001 30.8378C255.665 30.2697 255.862 29.3193 255.682 28.5016C255.488 27.8113 254.749 27.4896 254.114 27.2792C250.856 26.2725 247.319 26.6378 244.093 25.4993C242.783 25.0471 241.516 24.1922 241.013 22.8776C240.311 21.0172 240.633 18.7159 242.111 17.2908C243.552 15.8732 245.633 15.3272 247.612 15.1318V15.132Z" fill="#EEEEEE"/>
</g>
</g>
<g id="Group 18">
<path id="Shape_7" fill-rule="evenodd" clip-rule="evenodd" d="M133.206 31.7847L127.774 34.798L127.774 34.7983C129.727 38.4969 133.73 41.3277 139.924 41.3277C146.262 41.3277 150.979 38.1775 150.979 32.4239C150.979 27.0822 147.787 24.7081 142.116 22.3792L140.448 21.6945C137.59 20.5073 136.351 19.7307 136.351 17.8131C136.351 16.2608 137.59 15.0736 139.543 15.0736C141.449 15.0736 142.688 15.8498 143.832 17.8131L149.026 14.6166C146.834 10.9183 143.785 9.50258 139.544 9.50258C133.587 9.50258 129.775 13.1555 129.775 17.9499C129.775 23.1551 132.968 25.6208 137.781 27.5836L139.448 28.2691C142.498 29.5471 144.308 30.3235 144.308 32.5151C144.308 34.3415 142.546 35.6658 139.782 35.6658C136.494 35.6658 134.636 34.0222 133.206 31.7847ZM109.617 32.3328L104.185 35.483L104.184 35.4825C105.757 38.6787 108.855 41.3269 114.191 41.3269C120.1 41.3269 124.15 38.3133 124.15 31.6927V9.86819H117.48V31.6024C117.48 34.7983 116.097 35.6199 113.905 35.6199C111.618 35.6199 110.665 34.1133 109.617 32.3328Z" fill="#EEEEEE"/>
</g>
</g>
<g id="Group 9">
<g id="redux">
<path id="Shape_8" fill-rule="evenodd" clip-rule="evenodd" d="M333.118 156.359C331.578 156.359 330.295 155.087 330.244 153.498V153.498C330.193 152.915 330.347 152.332 330.603 151.962C327.729 146.823 326.19 140.307 328.55 133.525C330.244 128.44 334.503 124.996 339.122 124.996C344.049 124.996 349.18 129.446 349.796 138.028C349.026 137.764 347.897 137.393 347.23 137.234C347.076 134.426 344.767 127.433 339.327 127.539C337.377 127.592 334.503 128.545 333.015 130.505C331.219 132.784 330.193 135.538 329.987 138.717C329.679 142.955 330.552 146.876 332.656 150.478C332.758 150.425 332.912 150.425 333.015 150.425H333.118C334.657 150.425 335.94 151.697 335.992 153.286C336.043 154.928 334.811 156.306 333.22 156.359H333.118ZM356.314 146.028C352.414 141.313 346.666 138.717 340.097 138.717H339.276C338.814 137.764 337.839 137.128 336.761 137.128H336.659C335.068 137.181 333.836 138.558 333.888 140.201C333.939 141.79 335.222 143.061 336.761 143.061H336.864C337.993 143.008 338.968 142.267 339.379 141.26H340.302C344.203 141.26 347.897 142.426 351.233 144.704C353.799 146.452 355.647 148.73 356.673 151.485C357.545 153.71 357.494 155.882 356.57 157.736C355.133 160.544 352.721 162.081 349.54 162.081C347.487 162.081 345.537 161.445 344.51 160.968C343.946 161.498 342.92 162.345 342.201 162.875C344.408 163.935 346.666 164.518 348.821 164.518C353.748 164.518 357.391 161.71 358.777 158.902C360.265 155.829 360.163 150.531 356.314 146.028ZM347.282 152.598C348.77 152.439 349.899 151.114 349.848 149.525C349.796 147.935 348.513 146.664 346.974 146.664H346.871C345.28 146.717 344.049 148.094 344.1 149.737C344.151 150.531 344.459 151.22 344.921 151.697C343.176 155.246 340.508 157.842 336.505 160.014C333.785 161.498 330.962 162.028 328.14 161.657C325.831 161.339 324.034 160.279 322.905 158.531C321.263 155.935 321.109 153.127 322.495 150.319C323.47 148.306 325.009 146.823 325.984 146.081C325.779 145.392 325.471 144.227 325.317 143.379C317.876 148.942 318.646 156.465 320.904 160.014C322.597 162.663 326.036 164.306 329.833 164.306C330.86 164.306 331.886 164.2 332.912 163.935C339.481 162.61 344.459 158.584 347.282 152.598Z" fill="#EEEEEE"/>
</g>
<g id="git-icon (1)">
<path id="Shape_9" d="M46.7056 142.714L25.9215 121.926C24.7253 120.729 22.784 120.729 21.5863 121.926L17.2704 126.243L22.7453 131.719C24.0176 131.289 25.4766 131.578 26.4907 132.592C27.5097 133.613 27.7961 135.085 27.3558 136.362L32.6321 141.64C33.9087 141.2 35.3816 141.484 36.4012 142.506C37.8261 143.93 37.8261 146.24 36.4012 147.665C34.9759 149.091 32.6673 149.091 31.2412 147.665C30.1694 146.592 29.9046 145.018 30.4472 143.697L25.5266 138.775L25.526 151.727C25.8827 151.904 26.2085 152.137 26.4907 152.417C27.9157 153.842 27.9157 156.151 26.4907 157.578C25.0654 159.003 22.7557 159.003 21.3325 157.578C19.9075 156.151 19.9075 153.842 21.3325 152.418C21.6739 152.076 22.0798 151.805 22.5264 151.621V138.548C22.0791 138.366 21.6731 138.095 21.3325 137.752C20.2528 136.674 19.9932 135.089 20.5464 133.763L15.1494 128.364L0.898142 142.618C-0.299381 143.816 -0.299381 145.758 0.898142 146.956L21.6826 167.744C22.8792 168.942 24.8202 168.942 26.0182 167.744L46.7054 147.052C47.9026 145.855 47.9026 143.912 46.7054 142.714" fill="#EEEEEE"/>
</g>
</g>
<g id="Designer">
<path id="Fill 1" fill-rule="evenodd" clip-rule="evenodd" d="M288.668 214.51C294.475 200.685 297.694 185.519 297.694 169.607C297.694 105.125 245.042 52.856 180.086 52.856C115.133 52.856 62.4778 105.125 62.4778 169.607C62.4778 185.519 65.6973 200.685 71.5079 214.51H288.668Z" fill="#9D85ED"/>
<path id="Fill 4" fill-rule="evenodd" clip-rule="evenodd" d="M266.144 216.347C273.263 202.926 277.338 187.664 277.338 171.444C277.338 118.124 233.798 74.8998 180.087 74.8998C126.377 74.8998 82.8365 118.124 82.8365 171.444C82.8365 187.664 86.9087 202.926 94.0314 216.347H266.144Z" fill="#8972D8"/>
<path id="Stroke 7" d="M84.5308 214.51H77.1803" stroke="#504B46" stroke-width="3.67309" stroke-linecap="round"/>
<path id="Stroke 8" d="M282.995 214.51H275.644" stroke="#504B46" stroke-width="3.67309" stroke-linecap="round"/>
<path id="Stroke 9" d="M91.8813 214.51H268.294" stroke="#504B46" stroke-width="3.67309" stroke-linecap="round"/>
<path id="Fill 10" fill-rule="evenodd" clip-rule="evenodd" d="M194.559 150.216H172.507C152.209 150.216 135.755 166.664 135.755 186.955V188.792H154.131V214.51H212.935V188.792H231.311V186.955C231.311 166.664 214.857 150.216 194.559 150.216Z" fill="#44B2D6"/>
<path id="Fill 12" fill-rule="evenodd" clip-rule="evenodd" d="M230.905 181.787C230.81 181.1 230.725 180.406 230.593 179.73C230.471 179.972 230.391 180.237 230.391 180.527C230.391 181.016 230.593 181.457 230.905 181.787Z" fill="white"/>
<path id="Fill 14" fill-rule="evenodd" clip-rule="evenodd" d="M223.042 169.504C222.028 169.504 221.204 170.327 221.204 171.341C221.204 172.355 222.028 173.178 223.042 173.178C224.056 173.178 224.88 172.355 224.88 171.341C224.88 170.327 224.056 169.504 223.042 169.504Z" fill="white"/>
<path id="Fill 16" fill-rule="evenodd" clip-rule="evenodd" d="M223.042 187.874C222.366 187.874 221.803 188.256 221.484 188.796H224.6C224.281 188.256 223.718 187.874 223.042 187.874Z" fill="white"/>
<path id="Fill 18" fill-rule="evenodd" clip-rule="evenodd" d="M202.828 152.971C202.828 153.985 203.651 154.808 204.666 154.808C205.68 154.808 206.503 153.985 206.503 152.971C206.503 152.681 206.423 152.413 206.301 152.17C205.46 151.887 204.603 151.645 203.736 151.421C203.203 151.744 202.828 152.303 202.828 152.971Z" fill="white"/>
<path id="Fill 20" fill-rule="evenodd" clip-rule="evenodd" d="M213.854 163.993C214.868 163.993 215.691 163.17 215.691 162.156C215.691 161.142 214.868 160.319 213.854 160.319C212.839 160.319 212.016 161.142 212.016 162.156C212.016 163.17 212.839 163.993 213.854 163.993Z" fill="white"/>
<path id="Fill 22" fill-rule="evenodd" clip-rule="evenodd" d="M204.666 173.178C205.68 173.178 206.503 172.355 206.503 171.341C206.503 170.327 205.68 169.504 204.666 169.504C203.651 169.504 202.828 170.327 202.828 171.341C202.828 172.355 203.651 173.178 204.666 173.178Z" fill="white"/>
<path id="Fill 24" fill-rule="evenodd" clip-rule="evenodd" d="M213.854 182.363C214.868 182.363 215.691 181.54 215.691 180.526C215.691 179.512 214.868 178.689 213.854 178.689C212.839 178.689 212.016 179.512 212.016 180.526C212.016 181.54 212.839 182.363 213.854 182.363Z" fill="white"/>
<path id="Fill 26" fill-rule="evenodd" clip-rule="evenodd" d="M204.666 191.548C205.68 191.548 206.503 190.725 206.503 189.711C206.503 188.697 205.68 187.874 204.666 187.874C203.651 187.874 202.828 188.697 202.828 189.711C202.828 190.725 203.651 191.548 204.666 191.548Z" fill="white"/>
<path id="Fill 28" fill-rule="evenodd" clip-rule="evenodd" d="M212.016 198.896C212.016 199.568 212.395 200.13 212.935 200.45V197.342C212.395 197.661 212.016 198.223 212.016 198.896Z" fill="white"/>
<path id="Fill 30" fill-rule="evenodd" clip-rule="evenodd" d="M204.666 206.244C203.651 206.244 202.828 207.067 202.828 208.081C202.828 209.095 203.651 209.918 204.666 209.918C205.68 209.918 206.503 209.095 206.503 208.081C206.503 207.067 205.68 206.244 204.666 206.244Z" fill="white"/>
<path id="Fill 32" fill-rule="evenodd" clip-rule="evenodd" d="M186.289 154.808C187.304 154.808 188.127 153.985 188.127 152.971C188.127 151.957 187.304 151.134 186.289 151.134C185.275 151.134 184.452 151.957 184.452 152.971C184.452 153.985 185.275 154.808 186.289 154.808Z" fill="white"/>
<path id="Fill 34" fill-rule="evenodd" clip-rule="evenodd" d="M195.478 163.993C196.492 163.993 197.315 163.17 197.315 162.156C197.315 161.142 196.492 160.319 195.478 160.319C194.463 160.319 193.64 161.142 193.64 162.156C193.64 163.17 194.463 163.993 195.478 163.993Z" fill="white"/>
<path id="Fill 36" fill-rule="evenodd" clip-rule="evenodd" d="M186.289 173.178C187.304 173.178 188.127 172.355 188.127 171.341C188.127 170.327 187.304 169.504 186.289 169.504C185.275 169.504 184.452 170.327 184.452 171.341C184.452 172.355 185.275 173.178 186.289 173.178Z" fill="white"/>
<path id="Fill 38" fill-rule="evenodd" clip-rule="evenodd" d="M195.478 182.363C196.492 182.363 197.315 181.54 197.315 180.526C197.315 179.512 196.492 178.689 195.478 178.689C194.463 178.689 193.64 179.512 193.64 180.526C193.64 181.54 194.463 182.363 195.478 182.363Z" fill="white"/>
<path id="Fill 40" fill-rule="evenodd" clip-rule="evenodd" d="M186.289 187.874C185.275 187.874 184.452 188.697 184.452 189.711C184.452 190.725 185.275 191.548 186.289 191.548C187.304 191.548 188.127 190.725 188.127 189.711C188.127 188.697 187.304 187.874 186.289 187.874Z" fill="white"/>
<path id="Fill 42" fill-rule="evenodd" clip-rule="evenodd" d="M195.478 197.059C194.463 197.059 193.64 197.882 193.64 198.896C193.64 199.91 194.463 200.733 195.478 200.733C196.492 200.733 197.315 199.91 197.315 198.896C197.315 197.882 196.492 197.059 195.478 197.059Z" fill="white"/>
<path id="Fill 44" fill-rule="evenodd" clip-rule="evenodd" d="M186.289 206.244C185.275 206.244 184.452 207.067 184.452 208.081C184.452 209.095 185.275 209.918 186.289 209.918C187.304 209.918 188.127 209.095 188.127 208.081C188.127 207.067 187.304 206.244 186.289 206.244Z" fill="white"/>
<path id="Fill 46" fill-rule="evenodd" clip-rule="evenodd" d="M167.913 154.808C168.928 154.808 169.751 153.985 169.751 152.971C169.751 151.957 168.928 151.134 167.913 151.134C166.899 151.134 166.076 151.957 166.076 152.971C166.076 153.985 166.899 154.808 167.913 154.808Z" fill="white"/>
<path id="Fill 48" fill-rule="evenodd" clip-rule="evenodd" d="M177.101 163.993C178.116 163.993 178.939 163.17 178.939 162.156C178.939 161.142 178.116 160.319 177.101 160.319C176.087 160.319 175.264 161.142 175.264 162.156C175.264 163.17 176.087 163.993 177.101 163.993Z" fill="white"/>
<path id="Fill 50" fill-rule="evenodd" clip-rule="evenodd" d="M167.913 169.504C166.899 169.504 166.076 170.327 166.076 171.341C166.076 172.355 166.899 173.178 167.913 173.178C168.928 173.178 169.751 172.355 169.751 171.341C169.751 170.327 168.928 169.504 167.913 169.504Z" fill="white"/>
<path id="Fill 52" fill-rule="evenodd" clip-rule="evenodd" d="M177.101 178.689C176.087 178.689 175.264 179.512 175.264 180.526C175.264 181.54 176.087 182.363 177.101 182.363C178.116 182.363 178.939 181.54 178.939 180.526C178.939 179.512 178.116 178.689 177.101 178.689Z" fill="white"/>
<path id="Fill 54" fill-rule="evenodd" clip-rule="evenodd" d="M167.913 187.874C166.899 187.874 166.076 188.697 166.076 189.711C166.076 190.725 166.899 191.548 167.913 191.548C168.928 191.548 169.751 190.725 169.751 189.711C169.751 188.697 168.928 187.874 167.913 187.874Z" fill="white"/>
<path id="Fill 56" fill-rule="evenodd" clip-rule="evenodd" d="M177.101 197.059C176.087 197.059 175.264 197.882 175.264 198.896C175.264 199.91 176.087 200.733 177.101 200.733C178.116 200.733 178.939 199.91 178.939 198.896C178.939 197.882 178.116 197.059 177.101 197.059Z" fill="white"/>
<path id="Fill 58" fill-rule="evenodd" clip-rule="evenodd" d="M167.913 206.244C166.899 206.244 166.076 207.067 166.076 208.081C166.076 209.095 166.899 209.918 167.913 209.918C168.928 209.918 169.751 209.095 169.751 208.081C169.751 207.067 168.928 206.244 167.913 206.244Z" fill="white"/>
<path id="Fill 60" fill-rule="evenodd" clip-rule="evenodd" d="M158.725 160.319C157.711 160.319 156.887 161.142 156.887 162.156C156.887 163.17 157.711 163.993 158.725 163.993C159.739 163.993 160.563 163.17 160.563 162.156C160.563 161.142 159.739 160.319 158.725 160.319Z" fill="white"/>
<path id="Fill 62" fill-rule="evenodd" clip-rule="evenodd" d="M149.537 173.178C150.551 173.178 151.374 172.355 151.374 171.341C151.374 170.327 150.551 169.504 149.537 169.504C148.522 169.504 147.699 170.327 147.699 171.341C147.699 172.355 148.522 173.178 149.537 173.178Z" fill="white"/>
<path id="Fill 64" fill-rule="evenodd" clip-rule="evenodd" d="M158.725 178.689C157.711 178.689 156.887 179.512 156.887 180.526C156.887 181.54 157.711 182.363 158.725 182.363C159.739 182.363 160.563 181.54 160.563 180.526C160.563 179.512 159.739 178.689 158.725 178.689Z" fill="white"/>
<path id="Fill 66" fill-rule="evenodd" clip-rule="evenodd" d="M149.537 187.874C148.861 187.874 148.298 188.256 147.979 188.796H151.095C150.776 188.256 150.213 187.874 149.537 187.874Z" fill="white"/>
<path id="Fill 68" fill-rule="evenodd" clip-rule="evenodd" d="M158.725 197.059C157.711 197.059 156.887 197.882 156.887 198.896C156.887 199.91 157.711 200.733 158.725 200.733C159.739 200.733 160.563 199.91 160.563 198.896C160.563 197.882 159.739 197.059 158.725 197.059Z" fill="white"/>
<path id="Fill 70" fill-rule="evenodd" clip-rule="evenodd" d="M140.349 178.689C139.334 178.689 138.511 179.512 138.511 180.526C138.511 181.54 139.334 182.363 140.349 182.363C141.363 182.363 142.186 181.54 142.186 180.526C142.186 179.512 141.363 178.689 140.349 178.689Z" fill="white"/>
<path id="Fill 72" fill-rule="evenodd" clip-rule="evenodd" d="M231.311 186.96C231.311 166.669 214.857 150.22 194.559 150.22H172.507C152.209 150.22 135.755 166.669 135.755 186.96V190.634C135.755 170.343 152.209 164.916 172.507 164.916H194.559C214.857 164.916 231.311 170.343 231.311 190.634V186.96Z" fill="white" fill-opacity="0.2"/>
<path id="Stroke 74" d="M154.131 185.123V214.514H212.935V185.123" stroke="#504B46" stroke-width="3.67309" stroke-linecap="round" stroke-linejoin="round"/>
<path id="Stroke 76" d="M212.935 188.797V188.797H231.311V186.96C231.311 166.669 214.857 150.22 194.559 150.22H172.507C152.209 150.22 135.755 166.669 135.755 186.96V188.797H154.131" stroke="#504B46" stroke-width="3.67309" stroke-linecap="round" stroke-linejoin="round"/>
<path id="Stroke 80" d="M154.131 192.471V188.797" stroke="#504B46" stroke-width="3.67309" stroke-linecap="round" stroke-linejoin="round"/>
<path id="Stroke 84" d="M183.763 192.466V212.673" stroke="#504A45" stroke-width="3.67309" stroke-linecap="round" stroke-linejoin="round"/>
<path id="Fill 86" fill-rule="evenodd" clip-rule="evenodd" d="M262.551 221.858H257.038H253.363H249.456C239.915 221.858 231.08 218.522 231.08 194.307V188.796H216.379V194.307C216.379 229.224 234.369 236.554 249.456 236.554H253.363H257.038H262.551C266.612 236.554 269.902 233.262 269.902 229.206C269.902 225.146 266.612 221.858 262.551 221.858Z" fill="#FFD4C3"/>
<path id="Stroke 88" fill-rule="evenodd" clip-rule="evenodd" d="M262.551 221.858H257.038H253.363H249.456C239.915 221.858 231.08 218.522 231.08 194.307V188.796H216.379V194.307C216.379 229.224 234.369 236.554 249.456 236.554H253.363H257.038H262.551C266.612 236.554 269.902 233.262 269.902 229.206C269.902 225.146 266.612 221.858 262.551 221.858V221.858Z" stroke="#504A45" stroke-width="3.67309"/>
<path id="Fill 90" fill-rule="evenodd" clip-rule="evenodd" d="M194.559 153.507C194.559 157.192 192.717 160.634 189.649 162.677C185.944 165.146 181.122 165.146 177.417 162.677C174.349 160.634 172.507 157.192 172.507 153.507V137.363H194.559V153.507Z" fill="#FFDFD1"/>
<path id="Fill 92" fill-rule="evenodd" clip-rule="evenodd" d="M172.507 149.826C172.787 149.951 173.047 150.091 173.341 150.205C179.512 152.674 187.554 152.674 193.724 150.205C194.018 150.091 194.279 149.951 194.559 149.826V137.361H172.507V149.826Z" fill="#FFCAB3"/>
<path id="Stroke 94" fill-rule="evenodd" clip-rule="evenodd" d="M194.559 153.507C194.559 157.192 192.717 160.634 189.649 162.677C185.944 165.146 181.122 165.146 177.417 162.677C174.349 160.634 172.507 157.192 172.507 153.507V137.363H194.559V153.507V153.507Z" stroke="#504B46" stroke-width="3.67309" stroke-linecap="round" stroke-linejoin="round"/>
<path id="Fill 96" fill-rule="evenodd" clip-rule="evenodd" d="M220.285 109.807C220.285 106.386 217.937 103.539 214.773 102.72V100.622C214.773 84.3903 199.77 71.2302 183.533 71.2302C167.296 71.2302 152.293 84.3903 152.293 100.622V102.72C149.129 103.539 146.78 106.386 146.78 109.807C146.78 113.257 149.166 116.13 152.374 116.92C153.212 132.402 167.836 144.709 183.533 144.709C199.23 144.709 213.854 132.402 214.692 116.92C217.9 116.13 220.285 113.257 220.285 109.807Z" fill="#FFD4C3"/>
<path id="Stroke 98" fill-rule="evenodd" clip-rule="evenodd" d="M220.285 109.807C220.285 106.386 217.937 103.539 214.773 102.72V100.622C214.773 84.3903 199.77 71.2302 183.533 71.2302C167.296 71.2302 152.293 84.3903 152.293 100.622V102.72C149.129 103.539 146.78 106.386 146.78 109.807C146.78 113.257 149.166 116.13 152.374 116.92C153.212 132.402 167.836 144.709 183.533 144.709C199.23 144.709 213.854 132.402 214.692 116.92C217.9 116.13 220.285 113.257 220.285 109.807V109.807Z" stroke="#504A45" stroke-width="3.67309"/>
<path id="Stroke 100" d="M178.02 111.644C176.884 109.487 174.893 107.97 172.507 107.97C170.122 107.97 168.13 109.487 166.994 111.644" stroke="#504B46" stroke-width="3.67309" stroke-linecap="round" stroke-linejoin="round"/>
<path id="Stroke 102" d="M200.072 111.644C198.936 109.487 196.944 107.97 194.559 107.97C192.174 107.97 190.182 109.487 189.046 111.644" stroke="#504B46" stroke-width="3.67309" stroke-linecap="round" stroke-linejoin="round"/>
<path id="Fill 104" fill-rule="evenodd" clip-rule="evenodd" d="M185.6 96.9435C196.009 96.9435 205.469 94.4195 212.635 90.3083C207.957 79.1726 196.134 71.2295 183.535 71.2295C171.715 71.2295 160.583 78.2174 155.382 88.2693C162.788 93.5782 173.564 96.9435 185.6 96.9435Z" fill="#F9BEAA"/>
<path id="Fill 106" fill-rule="evenodd" clip-rule="evenodd" d="M208.647 86.5337C208.757 90.2224 217.585 140.827 183.762 142.866C150.696 144.865 156.503 85.9202 161.71 85.9202C170.899 87.7571 189.492 92.2541 209.261 84.0832C220.514 38.1587 140.416 48.049 143.106 85.9202C150.685 82.2462 152.294 87.7571 152.294 93.2681C152.294 110.83 153.213 122.2 152.294 128.171C146.149 168.081 173.35 170.116 184.071 191.546C196.015 168.893 224.043 159.227 214.774 126.793C213.396 121.973 218.217 86.5337 208.647 86.5337Z" fill="#FFD183"/>
<path id="Fill 108" fill-rule="evenodd" clip-rule="evenodd" d="M215.195 144.34C215.07 144.336 214.949 144.314 214.824 144.307C215.206 144.446 215.592 144.597 215.963 144.718C215.985 144.597 215.996 144.468 216.018 144.347C215.739 144.34 215.482 144.351 215.195 144.34Z" fill="#FFC258"/>
<path id="Fill 110" fill-rule="evenodd" clip-rule="evenodd" d="M151.604 144.343C151.615 144.435 151.63 144.52 151.641 144.608C151.913 144.516 152.196 144.41 152.472 144.307C152.35 144.314 152.229 144.336 152.104 144.34C151.931 144.347 151.773 144.34 151.604 144.343Z" fill="#FFC258"/>
<path id="Fill 112" fill-rule="evenodd" clip-rule="evenodd" d="M181.326 142.513C177.393 142.399 174.056 141.374 171.248 139.658C165.761 142.314 159.304 143.964 152.475 144.306C152.196 144.408 151.913 144.515 151.641 144.611C152.067 148.215 152.879 151.389 153.989 154.225C165.132 153.344 175.192 149.045 181.326 142.513Z" fill="#FFC258"/>
<path id="Fill 114" fill-rule="evenodd" clip-rule="evenodd" d="M214.825 144.307C207.622 143.943 200.852 142.113 195.185 139.193C192.538 140.732 189.426 141.805 185.776 142.271C191.778 148.815 201.664 153.168 212.694 154.171C214.193 151.25 215.336 148.135 215.961 144.718C215.593 144.597 215.204 144.446 214.825 144.307Z" fill="#FFC258"/>
<path id="Fill 116" fill-rule="evenodd" clip-rule="evenodd" d="M150.324 86.2964C159.483 66.0455 195.228 59.0614 209.488 73.015C206.736 39.4828 139.923 50.6774 142.382 85.3301C146.7 83.2397 149.075 84.1287 150.324 86.2964Z" fill="#FFEDD8"/>
<path id="Stroke 118" fill-rule="evenodd" clip-rule="evenodd" d="M208.647 86.5337C208.757 90.2224 217.585 140.827 183.762 142.866C150.696 144.865 156.503 85.9202 161.71 85.9202C170.899 87.7571 189.492 92.2541 209.261 84.0832C220.514 38.1587 140.416 48.049 143.106 85.9202C150.685 82.2462 152.294 87.7571 152.294 93.2681C152.294 110.83 153.213 122.2 152.294 128.171C146.149 168.081 173.35 170.116 184.071 191.546C196.015 168.893 224.881 158.712 213.855 126.106C212.249 121.355 222.124 86.5337 208.647 86.5337V86.5337Z" stroke="#504A45" stroke-width="3.67309" stroke-linecap="round" stroke-linejoin="round"/>
<path id="Fill 120" fill-rule="evenodd" clip-rule="evenodd" d="M221.128 128.478C226.181 126.413 229.243 134.83 222.811 135.98C213.267 137.685 191.722 119.499 183.762 124.499C175.805 119.499 154.26 137.685 144.712 135.98C138.28 134.83 141.346 126.413 146.399 128.478C133.227 117.838 127.901 145.757 152.217 144.706C165.665 144.126 177.789 138.504 183.762 130.01C189.734 138.504 201.862 144.126 215.31 144.706C239.626 145.757 234.296 117.838 221.128 128.478Z" fill="#FFD183"/>
<path id="Stroke 122" fill-rule="evenodd" clip-rule="evenodd" d="M221.128 128.478C226.181 126.413 229.243 134.83 222.811 135.98C213.267 137.685 191.722 119.499 183.762 124.499C175.805 119.499 154.26 137.685 144.712 135.98C138.28 134.83 141.346 126.413 146.399 128.478C133.227 117.838 127.901 145.757 152.217 144.706C165.665 144.126 177.789 138.504 183.762 130.01C189.734 138.504 201.862 144.126 215.31 144.706C239.626 145.757 234.296 117.838 221.128 128.478V128.478Z" stroke="#504A45" stroke-width="3.67309" stroke-linecap="round" stroke-linejoin="round"/>
<path id="Fill 124" fill-rule="evenodd" clip-rule="evenodd" d="M192.951 229.206C192.951 225.146 189.661 221.858 185.6 221.858H180.087H176.412H172.509C162.964 221.858 154.133 218.522 154.133 194.307V188.796H139.432V194.307C139.432 229.224 157.418 236.554 172.509 236.554H176.412H180.087H185.6C189.661 236.554 192.951 233.262 192.951 229.206Z" fill="#FFD4C3"/>
<path id="Stroke 126" fill-rule="evenodd" clip-rule="evenodd" d="M192.951 229.206C192.951 225.146 189.661 221.858 185.6 221.858H180.087H176.412H172.509C162.964 221.858 154.133 218.522 154.133 194.307V188.796H139.432V194.307C139.432 229.224 157.418 236.554 172.509 236.554H176.412H180.087H185.6C189.661 236.554 192.951 233.262 192.951 229.206V229.206Z" stroke="#504A45" stroke-width="3.67309"/>
<path id="Fill 128" fill-rule="evenodd" clip-rule="evenodd" d="M303.208 242.065C303.208 245.107 273.59 247.576 237.054 247.576C200.518 247.576 170.899 245.107 170.899 242.065C170.899 239.023 200.518 236.554 237.054 236.554C273.59 236.554 303.208 239.023 303.208 242.065Z" fill="#E3ECF1"/>
<path id="Fill 130" fill-rule="evenodd" clip-rule="evenodd" d="M223.495 229.206H216.145L233.698 174.806C234.19 173.288 235.601 172.26 237.197 172.26H241.871" fill="#E3ECF1"/>
<path id="Stroke 132" d="M223.495 229.206H216.145L233.698 174.806C234.19 173.288 235.601 172.26 237.197 172.26H241.871" stroke="#504A45" stroke-width="3.67309" stroke-linejoin="round"/>
<path id="Fill 134" fill-rule="evenodd" clip-rule="evenodd" d="M295.163 229.206H223.495L241.871 172.26H308.493C309.665 172.26 310.771 172.822 311.462 173.77C312.153 174.721 312.352 175.945 311.988 177.061L295.163 229.206Z" fill="#ADBAC7"/>
<path id="Stroke 136" fill-rule="evenodd" clip-rule="evenodd" d="M295.163 229.206H223.495L241.871 172.26H308.493C309.665 172.26 310.771 172.822 311.462 173.77C312.153 174.721 312.352 175.945 311.988 177.061L295.163 229.206V229.206Z" stroke="#504A45" stroke-width="3.67309" stroke-linejoin="round"/>
<path id="Fill 138" fill-rule="evenodd" clip-rule="evenodd" d="M290.345 172.26H241.872L223.496 229.206H233.379L290.345 172.26Z" fill="#CAD7DE"/>
<g id="Group 2_2">
<path id="Oval 2" d="M258.446 186.994C258.446 190.884 255.294 194.037 251.405 194.037C247.516 194.037 244.364 190.884 244.364 186.994C244.364 183.104 247.516 179.951 251.405 179.951C255.294 179.951 258.446 183.104 258.446 186.994Z" fill="#7159C1" stroke="white" stroke-width="0.793388"/>
<g id="Group">
<path id="Fill 22_2" fill-rule="evenodd" clip-rule="evenodd" d="M251.508 187.962C251.344 187.857 250.651 187.415 250.651 187.415C250.651 187.415 249.958 186.973 249.794 186.869C249.778 186.859 249.758 186.87 249.757 186.889C249.755 186.929 249.752 186.988 249.751 187.021C249.75 187.036 249.754 187.052 249.762 187.066C249.798 187.126 249.905 187.303 249.959 187.392C249.979 187.426 249.985 187.467 249.976 187.506L249.837 188.064C249.831 188.086 249.839 188.11 249.856 188.124C249.928 188.184 250.016 188.249 250.123 188.317C250.23 188.385 250.326 188.438 250.409 188.477C250.43 188.486 250.453 188.483 250.47 188.467L250.882 188.083C250.91 188.057 250.948 188.044 250.986 188.047C251.087 188.056 251.287 188.074 251.354 188.081C251.37 188.082 251.385 188.078 251.398 188.07C251.425 188.054 251.474 188.025 251.507 188.005C251.523 187.995 251.524 187.972 251.508 187.962Z" fill="white"/>
<path id="Fill 24_2" fill-rule="evenodd" clip-rule="evenodd" d="M250.343 188.668C250.335 188.623 250.308 188.585 250.269 188.564C250.159 188.508 250.071 188.453 250.047 188.438C250.023 188.423 249.937 188.368 249.838 188.292C249.803 188.265 249.757 188.258 249.715 188.272L249.691 188.279C249.525 188.335 249.398 188.472 249.351 188.646C249.238 189.072 249.024 189.873 248.928 190.234C248.913 190.287 248.975 190.326 249.014 190.288C249.28 190.035 249.872 189.473 250.187 189.174C250.315 189.052 250.375 188.871 250.347 188.693L250.343 188.668Z" fill="white"/>
<path id="Fill 26_2" fill-rule="evenodd" clip-rule="evenodd" d="M254.4 183.821C254.451 183.751 254.42 183.699 254.398 183.678C254.398 183.678 254.398 183.677 254.398 183.677C254.374 183.658 254.345 183.644 254.312 183.639L253.583 183.524C253.515 183.514 253.448 183.543 253.407 183.6L253.009 184.161C252.948 184.247 252.969 184.36 253.04 184.421C253.045 184.426 253.047 184.434 253.043 184.44C253.04 184.445 253.034 184.448 253.029 184.447L252.828 184.415L252.552 184.372C252.475 184.359 252.398 184.393 252.352 184.458L251.189 186.096C251.173 186.118 251.145 186.124 251.123 186.11L250.004 185.407C249.93 185.361 249.833 185.387 249.79 185.465C249.748 185.542 249.778 185.64 249.85 185.685L249.879 185.703C249.894 185.712 249.901 185.729 249.899 185.747L249.865 185.981C249.861 186.003 249.837 186.015 249.819 186.003C249.819 186.003 249.659 185.905 249.655 185.902C249.522 185.818 249.349 185.861 249.268 185.999C249.196 186.121 249.221 186.277 249.321 186.369C249.324 186.372 249.353 186.395 249.361 186.4C249.361 186.4 249.361 186.4 249.361 186.401C249.361 186.401 249.361 186.401 249.361 186.401L250.198 186.933C250.65 187.217 250.994 186.984 251.101 186.9C251.196 186.826 251.304 186.745 251.485 186.858C251.549 186.899 251.631 186.898 251.696 186.858L251.904 186.729C251.966 186.692 252.042 186.692 252.104 186.73L252.738 187.128C252.763 187.144 252.795 187.137 252.812 187.113L254.363 184.932C254.489 184.757 254.396 184.672 254.319 184.651C254.314 184.65 254.309 184.648 254.304 184.647L253.932 184.589C253.926 184.588 253.921 184.586 253.916 184.582C253.895 184.569 253.889 184.541 253.901 184.52C254.027 184.343 254.4 183.821 254.4 183.821Z" fill="white"/>
</g>
</g>
<path id="Fill 140" fill-rule="evenodd" clip-rule="evenodd" d="M295.163 229.206H219.82V238.391H287.812C291.873 238.391 295.163 235.103 295.163 231.043V229.206Z" fill="#CAD7DE"/>
<path id="Stroke 142" fill-rule="evenodd" clip-rule="evenodd" d="M295.163 229.206H219.82V238.391H287.812C291.873 238.391 295.163 235.103 295.163 231.043V229.206V229.206Z" stroke="#504A45" stroke-width="3.67309" stroke-linejoin="round"/>
<path id="Fill 144" fill-rule="evenodd" clip-rule="evenodd" d="M219.82 229.206H183.067V231.043C183.067 235.103 186.357 238.391 190.418 238.391H219.82V229.206Z" fill="#E3ECF1"/>
<path id="Stroke 146" fill-rule="evenodd" clip-rule="evenodd" d="M219.82 229.206H183.067V231.043C183.067 235.103 186.357 238.391 190.418 238.391H219.82V229.206V229.206Z" stroke="#504A45" stroke-width="3.67309" stroke-linejoin="round"/>
<path id="Fill 148" fill-rule="evenodd" clip-rule="evenodd" d="M274.364 198.705C274.342 196.42 276.227 195.322 276.316 195.27C275.253 193.72 273.6 193.507 273.012 193.481C271.608 193.338 270.27 194.308 269.553 194.308C268.844 194.308 267.741 193.503 266.576 193.522C265.044 193.547 263.629 194.414 262.842 195.785C261.247 198.547 262.434 202.637 263.985 204.878C264.742 205.976 265.65 207.207 266.833 207.159C267.98 207.115 268.41 206.421 269.792 206.421C271.174 206.421 271.563 207.159 272.773 207.137C274.004 207.119 274.783 206.024 275.536 204.922C276.407 203.651 276.764 202.42 276.786 202.354C276.757 202.343 274.39 201.435 274.364 198.705Z" fill="#EDF2F4"/>
<path id="Stroke 150" fill-rule="evenodd" clip-rule="evenodd" d="M274.364 198.705C274.342 196.42 276.227 195.322 276.316 195.27C275.253 193.72 273.6 193.507 273.012 193.481C271.608 193.338 270.27 194.308 269.553 194.308C268.844 194.308 267.741 193.503 266.576 193.522C265.044 193.547 263.629 194.414 262.842 195.785C261.247 198.547 262.434 202.637 263.985 204.878C264.742 205.976 265.65 207.207 266.833 207.159C267.98 207.115 268.41 206.421 269.792 206.421C271.174 206.421 271.563 207.159 272.773 207.137C274.004 207.119 274.783 206.024 275.536 204.922C276.407 203.651 276.764 202.42 276.786 202.354C276.757 202.343 274.39 201.435 274.364 198.705V198.705Z" stroke="#504A45" stroke-width="3.67309" stroke-linejoin="round"/>
<path id="Stroke 152" d="M271.274 188.792L272.931 187.135" stroke="#504A45" stroke-width="3.67309" stroke-linecap="round" stroke-linejoin="round"/>
<path id="Stroke 154" fill-rule="evenodd" clip-rule="evenodd" d="M295.163 229.206H223.495L241.871 172.26H308.493C309.665 172.26 310.771 172.822 311.462 173.77C312.153 174.721 312.352 175.945 311.988 177.061L295.163 229.206V229.206Z" stroke="#504A45" stroke-width="3.67309" stroke-linejoin="round"/>
<path id="Stroke 156" d="M106.175 158.955C104.021 161.108 104.021 164.598 106.175 166.748L109.405 169.977C111.555 172.13 111.555 175.62 109.405 177.769L106.175 180.999C104.021 183.152 104.021 186.642 106.175 188.791" stroke="white" stroke-width="3.67309" stroke-linecap="round" stroke-linejoin="round"/>
<path id="Stroke 158" d="M120.115 158.955C117.961 161.108 117.961 164.598 120.115 166.748L123.345 169.977C125.495 172.13 125.495 175.62 123.345 177.769L120.115 180.999C117.961 183.152 117.961 186.642 120.115 188.791" stroke="white" stroke-width="3.67309" stroke-linecap="round" stroke-linejoin="round"/>
<path id="Fill 160" fill-rule="evenodd" clip-rule="evenodd" d="M137.822 243.902C137.822 245.93 126.304 247.576 112.095 247.576C97.8867 247.576 86.3684 245.93 86.3684 243.902C86.3684 241.874 97.8867 240.228 112.095 240.228C126.304 240.228 137.822 241.874 137.822 243.902Z" fill="#E3ECF1"/>
<path id="Fill 162" fill-rule="evenodd" clip-rule="evenodd" d="M95.5566 234.717C87.449 234.717 80.8556 228.126 80.8556 220.021C80.8556 211.916 87.449 205.325 95.5566 205.325V212.673C91.5028 212.673 88.2061 215.969 88.2061 220.021C88.2061 224.073 91.5028 227.369 95.5566 227.369V234.717Z" fill="white"/>
<path id="Stroke 164" fill-rule="evenodd" clip-rule="evenodd" d="M95.5566 234.717C87.449 234.717 80.8556 228.126 80.8556 220.021C80.8556 211.916 87.449 205.325 95.5566 205.325V212.673C91.5028 212.673 88.2061 215.969 88.2061 220.021C88.2061 224.073 91.5028 227.369 95.5566 227.369V234.717V234.717Z" stroke="#504A45" stroke-width="3.67309" stroke-linejoin="round"/>
<path id="Fill 166" fill-rule="evenodd" clip-rule="evenodd" d="M132.491 238.668C132.491 240.696 130.845 242.342 128.816 242.342H99.8735C97.8448 242.342 96.1982 240.696 96.1982 238.668V200.092C96.1982 198.064 97.8448 196.418 99.8735 196.418H128.816C130.845 196.418 132.491 198.064 132.491 200.092V238.668Z" fill="white"/>
<path id="Stroke 168" fill-rule="evenodd" clip-rule="evenodd" d="M132.079 238.391C132.079 240.419 130.433 242.065 128.404 242.065H99.4615C97.4328 242.065 95.7863 240.419 95.7863 238.391V199.814C95.7863 197.786 97.4328 196.14 99.4615 196.14H128.404C130.433 196.14 132.079 197.786 132.079 199.814V238.391V238.391Z" stroke="#504A45" stroke-width="3.67309" stroke-linejoin="round"/>
<g id="Group_2">
<path id="Fill 22_3" fill-rule="evenodd" clip-rule="evenodd" d="M113.441 222.916C112.849 222.547 110.351 220.998 110.351 220.998C110.351 220.998 107.854 219.446 107.261 219.079C107.205 219.044 107.132 219.084 107.129 219.151C107.123 219.291 107.113 219.497 107.108 219.612C107.105 219.668 107.119 219.722 107.148 219.77C107.279 219.981 107.664 220.604 107.858 220.918C107.931 221.036 107.953 221.18 107.918 221.315L107.417 223.275C107.397 223.354 107.424 223.436 107.487 223.487C107.745 223.695 108.065 223.925 108.45 224.164C108.834 224.403 109.181 224.587 109.481 224.725C109.554 224.759 109.639 224.746 109.699 224.692L111.185 223.343C111.287 223.25 111.423 223.204 111.56 223.216C111.923 223.248 112.643 223.312 112.888 223.333C112.943 223.338 112.998 223.326 113.045 223.298C113.143 223.241 113.319 223.138 113.439 223.068C113.496 223.035 113.498 222.951 113.441 222.916Z" fill="#504A45"/>
<path id="Fill 24_3" fill-rule="evenodd" clip-rule="evenodd" d="M109.24 225.395C109.215 225.238 109.115 225.103 108.974 225.032C108.578 224.833 108.262 224.642 108.176 224.589C108.09 224.536 107.778 224.341 107.421 224.077C107.294 223.982 107.129 223.955 106.978 224.004L106.892 224.032C106.294 224.226 105.834 224.709 105.667 225.319C105.257 226.814 104.486 229.628 104.14 230.893C104.089 231.079 104.311 231.215 104.452 231.085C105.411 230.197 107.545 228.221 108.678 227.171C109.14 226.743 109.357 226.109 109.255 225.485L109.24 225.395Z" fill="#504A45"/>
<path id="Fill 26_3" fill-rule="evenodd" clip-rule="evenodd" d="M123.868 208.378C124.05 208.135 123.941 207.95 123.86 207.875C123.86 207.875 123.86 207.875 123.86 207.875C123.774 207.807 123.67 207.759 123.55 207.74L120.922 207.337C120.678 207.3 120.434 207.402 120.287 207.603L118.853 209.571C118.632 209.874 118.708 210.273 118.965 210.487C118.983 210.503 118.988 210.531 118.975 210.552C118.965 210.57 118.944 210.579 118.925 210.576L118.201 210.465L117.205 210.312C116.927 210.269 116.65 210.386 116.483 210.614L112.29 216.367C112.235 216.442 112.134 216.463 112.055 216.415L108.019 213.947C107.752 213.784 107.403 213.875 107.248 214.151C107.097 214.42 107.204 214.764 107.466 214.924L107.57 214.988C107.622 215.019 107.65 215.079 107.641 215.139L107.518 215.962C107.506 216.041 107.419 216.082 107.352 216.041C107.352 216.041 106.776 215.694 106.761 215.685C106.284 215.389 105.66 215.541 105.367 216.024C105.107 216.455 105.198 217.002 105.558 217.326C105.57 217.336 105.674 217.417 105.701 217.434C105.702 217.434 105.702 217.435 105.703 217.435C105.703 217.435 105.703 217.435 105.703 217.435L108.718 219.304C110.348 220.3 111.587 219.483 111.974 219.19C112.317 218.93 112.707 218.643 113.358 219.043C113.591 219.186 113.886 219.181 114.12 219.04L114.871 218.59C115.092 218.457 115.368 218.458 115.589 218.593L117.875 219.991C117.965 220.045 118.081 220.022 118.144 219.937L123.732 212.28C124.188 211.665 123.851 211.366 123.573 211.292C123.555 211.288 123.538 211.283 123.519 211.28L122.179 211.075C122.159 211.072 122.14 211.063 122.121 211.052C122.047 211.006 122.024 210.907 122.069 210.832C122.523 210.211 123.868 208.378 123.868 208.378Z" fill="#504A45"/>
</g>
</g>
</g>
</svg>
