<svg width="30" height="36" viewBox="0 0 30 36" fill="none" xmlns="http://www.w3.org/2000/svg">
<g id="Group">
<path id="Fill 22" fill-rule="evenodd" clip-rule="evenodd" d="M14.0801 23.5692C13.1846 23.0118 9.40611 20.6689 9.40611 20.6689C9.40611 20.6689 5.62938 18.3223 4.73269 17.7672C4.64704 17.7142 4.5376 17.774 4.53284 17.8758C4.52297 18.0884 4.50834 18.3995 4.50041 18.5733C4.49671 18.6577 4.51786 18.7403 4.5621 18.8117C4.75966 19.1313 5.34176 20.0726 5.63502 20.5475C5.74552 20.7266 5.77847 20.9439 5.72613 21.1485L4.96814 24.1122C4.93783 24.2311 4.97925 24.3563 5.07406 24.4328C5.46478 24.7479 5.94766 25.0945 6.52994 25.4558C7.11187 25.8173 7.636 26.0957 8.09016 26.3049C8.2003 26.3556 8.32896 26.3359 8.41901 26.2542L10.6669 24.2153C10.8222 24.0745 11.0273 24.005 11.2346 24.0233C11.7839 24.0715 12.873 24.1677 13.2433 24.2005C13.3263 24.2078 13.4088 24.1892 13.4809 24.1471C13.6294 24.0606 13.895 23.9054 14.0764 23.7996C14.1632 23.7489 14.1655 23.6224 14.0801 23.5692Z" fill="white"/>
<path id="Fill 24" fill-rule="evenodd" clip-rule="evenodd" d="M7.72619 27.3181C7.68737 27.0805 7.53722 26.876 7.32319 26.7687C6.72363 26.4678 6.24687 26.1799 6.11647 26.0998C5.98608 26.0197 5.51391 25.7241 4.97416 25.3243C4.78166 25.1816 4.53234 25.1406 4.30473 25.2143L4.17451 25.2564C3.27022 25.5496 2.57344 26.2809 2.32077 27.2029C1.70144 29.463 0.535488 33.7185 0.0112665 35.6316C-0.0658404 35.9127 0.270466 36.1193 0.483436 35.9221C1.93435 34.5787 5.16155 31.5906 6.87537 30.0035C7.57462 29.3561 7.90246 28.3979 7.74825 27.4542L7.72619 27.3181Z" fill="white"/>
<path id="Fill 26" fill-rule="evenodd" clip-rule="evenodd" d="M29.8506 1.58545C30.125 1.2177 29.9605 0.939163 29.8379 0.825102C29.8379 0.825102 29.8377 0.824923 29.8375 0.824744C29.7082 0.722126 29.5509 0.649005 29.37 0.621294L25.3939 0.0114811C25.025 -0.0450129 24.6557 0.109809 24.4343 0.413554L22.2647 3.38968C21.9309 3.84735 22.0452 4.45055 22.4339 4.77485C22.4622 4.79881 22.47 4.84065 22.4504 4.87336C22.4339 4.90036 22.4026 4.91341 22.3735 4.90894L21.2793 4.74107L19.772 4.5099C19.3525 4.44572 18.9326 4.62146 18.6808 4.96704L12.3387 13.6669C12.2562 13.7801 12.1021 13.811 11.9832 13.7384L5.87808 10.0075C5.47436 9.76081 4.94749 9.89811 4.71267 10.3154C4.48387 10.7219 4.64642 11.2423 5.04201 11.4842L5.19979 11.5806C5.27789 11.6281 5.31994 11.7186 5.30633 11.81L5.12099 13.0532C5.10332 13.1726 4.97134 13.2352 4.86939 13.1728C4.86939 13.1728 3.99851 12.649 3.97625 12.6352C3.25414 12.1879 2.3103 12.4176 1.86823 13.1483C1.47458 13.7991 1.61257 14.6266 2.15711 15.1161C2.1739 15.1315 2.33185 15.2545 2.37267 15.2797C2.37355 15.2802 2.37443 15.2809 2.37532 15.2813C2.37549 15.2815 2.37567 15.2817 2.37567 15.2817L6.93642 18.1069C9.40169 19.6135 11.2756 18.3781 11.8606 17.9351C12.3799 17.5418 12.9698 17.1075 13.954 17.7122C14.3066 17.929 14.7519 17.921 15.107 17.708L16.2424 17.0274C16.5774 16.8267 16.9945 16.8285 17.3281 17.0321L20.7863 19.1456C20.9222 19.2286 21.0982 19.1933 21.1925 19.0641L29.6453 7.48674C30.3347 6.55638 29.8244 6.10389 29.4045 5.99269C29.3774 5.98644 29.3511 5.97875 29.3232 5.97446L27.2959 5.66374C27.2661 5.65891 27.236 5.64604 27.2085 5.62906C27.0961 5.55969 27.0607 5.41059 27.1295 5.29671C27.8166 4.35759 29.8506 1.58545 29.8506 1.58545Z" fill="white"/>
</g>
</svg>
