<svg width="146" height="161" viewBox="0 0 146 161" fill="none" xmlns="http://www.w3.org/2000/svg">
<g id="noun_235675_cc">
<g id="Group">
<path id="Shape" fill-rule="evenodd" clip-rule="evenodd" d="M136.729 20C140.439 20 141.932 21.6667 142.523 23.0533C144.255 27.0867 139.954 31.6667 133.995 38.0067C131.427 40.74 127.126 45.32 126.768 46.8533C126.781 52.94 114.603 60.8933 106.454 65.52C105.399 69.8067 102.074 81.2533 95.5437 86.0267C88.6353 91.0733 79.3577 93.3333 73.2257 93.3333C67.7573 93.3333 58.7385 91.42 51.3655 86.0267C44.8287 81.2533 41.5038 69.8133 40.4553 65.52C32.3125 60.8933 20.1347 52.9267 20.1347 46.6667C19.7908 45.3246 15.5189 40.7782 12.9477 38.0417L12.9477 38.0417L12.921 38.0133L12.9002 37.9912C6.95156 31.656 2.65658 27.082 4.38666 23.0533C4.98393 21.6667 6.47048 20 10.1802 20C16.638 20 24.7452 24.1589 31.2789 27.5106L31.2971 27.52L31.3662 27.5554C33.2126 28.5027 35.4985 29.6756 37.1371 30.3867C38.471 24.8667 42.8112 16.7333 47.2907 14.1533C49.9121 8.14 60.4374 0 66.5893 0C69.6287 0 71.8718 0.866667 73.4513 1.98667C75.0374 0.866667 77.2805 0 80.3199 0C86.3325 0 96.5923 8.12667 99.1606 14.1333C103.746 16.7133 108.325 24.92 109.739 30.4C111.391 29.6867 113.741 28.4867 115.612 27.52L115.63 27.5106C122.164 24.1589 130.271 20 136.729 20ZM89.9073 15.4298L86.1312 28.7632C85.6202 30.5365 86.6488 32.3765 88.4074 32.8832C88.7127 32.9698 89.018 33.0098 89.3166 33.0098C90.7633 33.0098 92.0906 32.0565 92.5087 30.5898L96.2848 17.2565C96.7892 15.4832 95.7672 13.6432 94.0019 13.1365C92.2167 12.6098 90.405 13.6565 89.9073 15.4298ZM52.5159 13.1096C54.2546 12.6362 56.0929 13.7429 56.5375 15.5362L59.8557 28.8696C60.2937 30.6562 59.2186 32.4629 57.4401 32.9096C57.1746 32.9762 56.9025 33.0096 56.6371 33.0096C55.1439 33.0096 53.7901 32.0029 53.4184 30.4829L50.1003 17.1496C49.6556 15.3696 50.7307 13.5562 52.5159 13.1096ZM56.3182 52.6667H62.9545C64.7862 52.6667 66.2727 51.1733 66.2727 49.3333C66.2727 47.4933 64.7862 46 62.9545 46H56.3182C54.4865 46 53 47.4933 53 49.3333C53 51.1733 54.4865 52.6667 56.3182 52.6667ZM68.8964 41.7403C67.6023 43.0403 65.4986 43.0403 64.2045 41.7403C61.968 39.5003 59.5192 39.0936 56.2408 40.4403C53.2346 41.6669 49.7837 44.2669 45.6691 48.4069C45.0187 49.0536 44.1693 49.3803 43.3198 49.3803C42.4704 49.3803 41.6209 49.0536 40.9706 48.4069C39.6765 47.1069 39.6765 44.9936 40.9706 43.6936C45.7222 38.9203 49.8965 35.8336 53.7323 34.2669C59.486 31.9069 64.7354 32.8536 68.8897 37.0269C70.1905 38.3269 70.1905 40.4336 68.8964 41.7403ZM70 33C70 34.84 71.4865 36.3333 73.3182 36.3333C75.1498 36.3333 76.6364 34.84 76.6364 33V6.33333C76.6364 4.49333 75.1498 3 73.3182 3C71.4865 3 70 4.49333 70 6.33333V33ZM88.9545 52.6667H82.3182C80.4865 52.6667 79 51.1733 79 49.3333C79 47.4933 80.4865 46 82.3182 46H88.9545C90.7862 46 92.2727 47.4933 92.2727 49.3333C92.2727 51.1733 90.7862 52.6667 88.9545 52.6667ZM102.547 49.3803C103.397 49.3803 104.246 49.0536 104.896 48.4069C106.19 47.1003 106.19 44.9936 104.89 43.6936C100.138 38.9203 95.9638 35.8336 92.128 34.2669C86.3743 31.9069 81.1249 32.8536 76.9706 37.0269C75.6765 38.3269 75.6765 40.4403 76.9706 41.7403C78.2647 43.0403 80.3684 43.0403 81.6625 41.7403C83.8989 39.5003 86.3477 39.1003 89.6261 40.4403C92.6257 41.6669 96.0833 44.2736 100.198 48.4069C100.848 49.0536 101.698 49.3803 102.547 49.3803Z" fill="white"/>
<g id="Group_2">
<path id="Shape_2" d="M20.3366 125.237C19.4341 123.63 20.0048 121.604 21.5975 120.697C23.1836 119.797 25.2144 120.364 26.1169 121.97C29.9992 128.904 37.5115 150.07 41.0421 160.27H66.3664V146.324C64.276 145.577 62.4377 144.17 61.2365 142.23C52.5164 128.184 39.6418 110.65 34.0606 106.817C33.7686 106.617 33.4434 106.464 33.105 106.364C29.8399 105.417 27.0327 104.164 24.5441 102.537C23.3495 101.764 21.7834 101.824 20.6618 102.73L14.5165 107.664C13.979 108.097 13.5874 108.684 13.4016 109.35L0.1289 156.017C-0.156464 157.024 0.0359905 158.104 0.666445 158.937C1.2969 159.777 2.27908 160.27 3.32099 160.27H34.0142C30.3111 149.657 23.688 131.217 20.3366 125.237Z" fill="white"/>
<path id="Shape_3" d="M145.867 156.031L132.595 109.364C132.409 108.697 132.017 108.111 131.48 107.677L125.328 102.731C124.213 101.831 122.647 101.757 121.445 102.537C118.857 104.224 115.984 105.504 112.639 106.444C112.393 106.517 112.155 106.617 111.929 106.737C105.319 110.431 87.4474 130.677 77.4464 143.197C76.2784 144.664 74.8184 145.644 73 146.251V160.277H98.3177C101.848 150.071 109.361 128.911 113.243 121.977C114.145 120.364 116.163 119.797 117.762 120.704C119.362 121.611 119.926 123.637 119.023 125.244C115.678 131.224 109.055 149.664 105.352 160.277H142.682C143.724 160.277 144.706 159.784 145.33 158.951C145.96 158.117 146.153 157.037 145.867 156.031Z" fill="white"/>
</g>
<path id="Shape_4" d="M115.707 72.1094C114.884 71.4027 113.763 71.1494 112.701 71.4227C111.653 71.7027 110.803 72.4894 110.431 73.5161C108.427 79.1227 104.83 86.6961 99.0434 90.9227C90.3764 97.2494 79.8179 99.5027 72.8165 99.5027C66.0408 99.5027 55.7146 97.2494 47.0475 90.9227C41.181 86.6361 37.5575 78.9294 35.5534 73.2227C35.1884 72.1961 34.3522 71.4094 33.3103 71.1227C32.2617 70.8294 31.1468 71.0694 30.3106 71.7627C24.0924 76.9161 21.0794 83.2027 22.2474 88.5761C23.0106 92.0961 25.924 96.8227 35.4605 99.3894C41.4929 101.009 57.3538 122.903 66.6845 137.936C67.2486 138.856 68.2242 139.436 69.3059 139.496C69.3656 139.503 69.432 139.503 69.4984 139.503C70.5005 139.503 71.4561 139.049 72.0865 138.256C83.3418 124.163 103.642 101.149 110.173 99.3894C119.656 96.8427 122.576 92.1561 123.366 88.6694C124.547 83.4227 121.687 77.2361 115.707 72.1094Z" fill="white"/>
</g>
</g>
</svg>
